<svg xmlns="http://www.w3.org/2000/svg" version="1.1" xmlns:xlink="http://www.w3.org/1999/xlink" xmlns:svgjs="http://svgjs.dev/svgjs" width="333" height="549"><svg width="333" height="549" viewBox="0 0 333 549" fill="none" xmlns="http://www.w3.org/2000/svg">
<path d="M305.283 147.53C305.535 147.729 305.785 147.918 306.051 148.096C305.882 148.476 305.649 148.783 305.394 149.111C305.326 149.199 305.326 149.199 305.257 149.288C304.832 149.834 304.395 150.37 303.958 150.906C303.397 151.594 302.849 152.292 302.303 152.992C301.708 153.755 301.107 154.514 300.494 155.264C300.029 155.833 299.577 156.41 299.134 156.996C298.614 157.684 298.075 158.352 297.524 159.016C296.952 159.706 296.398 160.41 295.848 161.117C295.189 161.962 294.523 162.799 293.845 163.629C293.499 164.054 293.161 164.484 292.828 164.92C292.385 165.502 291.926 166.07 291.464 166.637C290.903 167.325 290.355 168.022 289.809 168.722C289.213 169.486 288.613 170.245 288 170.994C287.535 171.563 287.083 172.14 286.64 172.726C286.12 173.414 285.58 174.083 285.03 174.746C284.458 175.436 283.904 176.14 283.354 176.848C282.695 177.692 282.029 178.529 281.351 179.359C281.005 179.784 280.667 180.214 280.334 180.65C279.891 181.232 279.432 181.8 278.969 182.367C278.409 183.055 277.861 183.752 277.315 184.452C276.719 185.216 276.119 185.975 275.506 186.725C275.041 187.293 274.589 187.87 274.146 188.456C273.625 189.144 273.086 189.813 272.536 190.476C271.963 191.167 271.41 191.87 270.86 192.578C270.673 192.817 270.487 193.055 270.3 193.294C270.253 193.354 270.206 193.414 270.158 193.475C269.794 193.938 269.423 194.395 269.051 194.85C268.586 195.419 268.134 195.996 267.691 196.582C267.175 197.263 266.64 197.924 266.094 198.581C265.674 199.088 265.27 199.605 264.873 200.13C264.355 200.816 263.818 201.483 263.269 202.144C262.697 202.834 262.144 203.538 261.593 204.245C261.407 204.484 261.22 204.723 261.033 204.961C260.987 205.021 260.94 205.081 260.891 205.143C260.528 205.606 260.157 206.062 259.784 206.518C259.319 207.086 258.867 207.663 258.424 208.249C257.904 208.937 257.364 209.606 256.814 210.27C256.242 210.96 255.688 211.663 255.138 212.371C254.479 213.216 253.813 214.053 253.135 214.882C252.789 215.308 252.451 215.737 252.118 216.173C251.675 216.755 251.216 217.323 250.754 217.89C250.193 218.578 249.645 219.276 249.099 219.975C248.503 220.739 247.903 221.498 247.29 222.248C246.825 222.817 246.373 223.394 245.93 223.98C245.41 224.667 244.87 225.336 244.32 226C243.747 226.69 243.194 227.394 242.644 228.101C242.457 228.34 242.271 228.579 242.084 228.817C242.037 228.877 241.99 228.937 241.942 228.999C241.578 229.461 241.207 229.918 240.835 230.373C240.37 230.942 239.918 231.519 239.475 232.105C238.959 232.786 238.424 233.448 237.878 234.104C237.458 234.611 237.054 235.128 236.657 235.654C236.139 236.339 235.602 237.006 235.053 237.667C234.481 238.357 233.928 239.061 233.377 239.769C233.191 240.007 233.004 240.246 232.818 240.485C232.771 240.545 232.724 240.604 232.675 240.666C232.312 241.129 231.941 241.585 231.568 242.041C231.103 242.61 230.651 243.187 230.208 243.773C229.688 244.46 229.148 245.129 228.598 245.793C228.026 246.483 227.472 247.187 226.922 247.894C226.263 248.739 225.597 249.576 224.919 250.406C224.573 250.831 224.235 251.26 223.902 251.696C223.459 252.278 223 252.847 222.538 253.414C221.977 254.101 221.429 254.799 220.883 255.499C220.287 256.262 219.687 257.021 219.074 257.771C218.609 258.34 218.157 258.917 217.714 259.503C217.194 260.191 216.654 260.86 216.104 261.523C215.531 262.213 214.978 262.917 214.428 263.624C214.241 263.863 214.055 264.102 213.868 264.341C213.821 264.4 213.774 264.46 213.726 264.522C213.362 264.985 212.991 265.441 212.619 265.897C212.154 266.465 211.702 267.042 211.259 267.629C210.743 268.31 210.209 268.971 209.662 269.627C209.242 270.134 208.838 270.651 208.441 271.177C207.923 271.863 207.386 272.529 206.837 273.191C206.265 273.881 205.712 274.584 205.161 275.292C204.975 275.531 204.788 275.769 204.602 276.008C204.555 276.068 204.508 276.128 204.459 276.189C204.096 276.652 203.725 277.109 203.352 277.564C202.887 278.133 202.435 278.71 201.992 279.296C201.472 279.984 200.932 280.653 200.382 281.316C199.81 282.006 199.256 282.71 198.706 283.417C198.047 284.262 197.381 285.099 196.703 285.929C196.357 286.354 196.019 286.784 195.686 287.22C195.243 287.802 194.784 288.37 194.322 288.937C193.761 289.625 193.213 290.322 192.667 291.022C192.071 291.786 191.471 292.545 190.858 293.294C190.393 293.863 189.941 294.44 189.498 295.026C188.978 295.714 188.438 296.383 187.888 297.046C187.316 297.736 186.762 298.44 186.212 299.148C186.025 299.387 185.839 299.625 185.652 299.864C185.605 299.924 185.558 299.984 185.51 300.045C185.146 300.508 184.775 300.964 184.403 301.42C183.938 301.989 183.486 302.566 183.043 303.152C182.527 303.833 181.993 304.494 181.446 305.151C181.026 305.658 180.622 306.175 180.225 306.7C179.707 307.386 179.17 308.053 178.621 308.714C178.049 309.404 177.496 310.108 176.945 310.815C176.759 311.054 176.572 311.293 176.386 311.531C176.339 311.591 176.292 311.651 176.243 311.713C175.88 312.175 175.509 312.632 175.136 313.087C174.671 313.656 174.219 314.233 173.776 314.819C173.256 315.507 172.717 316.176 172.166 316.839C171.594 317.529 171.04 318.233 170.49 318.941C169.831 319.785 169.165 320.622 168.487 321.452C168.141 321.877 167.803 322.307 167.47 322.743C167.027 323.325 166.568 323.893 166.106 324.46C165.545 325.148 164.997 325.846 164.451 326.545C163.855 327.309 163.255 328.068 162.642 328.818C162.177 329.386 161.725 329.964 161.282 330.55C160.762 331.237 160.222 331.906 159.672 332.57C159.1 333.26 158.546 333.963 157.996 334.671C157.337 335.516 156.67 336.353 155.993 337.182C155.647 337.608 155.309 338.037 154.976 338.473C154.533 339.055 154.074 339.624 153.611 340.19C153.051 340.878 152.503 341.576 151.957 342.276C151.361 343.039 150.761 343.798 150.148 344.548C149.683 345.117 149.231 345.694 148.788 346.28C148.267 346.967 147.728 347.636 147.178 348.3C146.605 348.99 146.052 349.694 145.502 350.401C145.315 350.64 145.129 350.879 144.942 351.117C144.895 351.177 144.848 351.237 144.8 351.299C144.436 351.762 144.065 352.218 143.693 352.673C143.227 353.242 142.776 353.819 142.332 354.405C141.817 355.086 141.282 355.748 140.736 356.404C140.316 356.911 139.912 357.428 139.515 357.954C138.997 358.639 138.46 359.306 137.911 359.967C137.339 360.657 136.786 361.361 136.235 362.069C136.049 362.308 135.862 362.546 135.675 362.785C135.629 362.845 135.582 362.905 135.533 362.966C135.17 363.429 134.799 363.885 134.426 364.341C133.961 364.91 133.509 365.487 133.066 366.073C132.546 366.76 132.006 367.429 131.456 368.093C130.884 368.783 130.33 369.487 129.78 370.194C129.121 371.039 128.455 371.876 127.777 372.706C127.431 373.131 127.093 373.561 126.76 373.997C126.317 374.579 125.858 375.147 125.395 375.714C124.835 376.402 124.287 377.099 123.741 377.799C123.09 378.634 122.431 379.461 121.761 380.281C121.349 380.786 120.952 381.302 120.559 381.823C120.038 382.511 119.493 383.171 118.926 383.821C118.671 384.115 118.426 384.416 118.184 384.72C117.63 385.403 117.023 386.035 116.42 386.674C116.167 386.944 115.92 387.219 115.672 387.494C114.836 388.407 113.974 389.309 113.028 390.109C112.789 390.317 112.558 390.531 112.327 390.747C111.776 391.263 111.216 391.759 110.627 392.231C110.387 392.425 110.15 392.62 109.914 392.818C107.409 394.918 104.694 396.771 101.876 398.425C101.794 398.474 101.712 398.522 101.627 398.572C94.4071 402.814 86.4051 405.606 68.5844 407.508C68.4726 407.508 68.3607 407.508 68.2455 407.508C66.3978 407.505 64.5682 407.456 62.7278 407.28C62.6579 407.273 62.588 407.267 62.5159 407.26C54.2187 406.475 46.2341 404.124 31.4924 396.029C31.4146 395.976 31.3369 395.923 31.2568 395.868C30.1643 395.117 29.1129 394.32 28.0727 393.498C27.8509 393.323 27.6286 393.148 27.4062 392.974C27.0674 392.708 26.7289 392.441 26.3906 392.175C26.5251 391.89 26.6731 391.643 26.864 391.392C26.9169 391.323 26.9698 391.253 27.0243 391.182C27.0815 391.108 27.1386 391.034 27.1975 390.957C27.2572 390.88 27.317 390.802 27.3785 390.722C27.8661 390.09 28.3698 389.473 28.8791 388.859C29.4514 388.169 30.0048 387.465 30.5553 386.758C30.7416 386.519 30.9282 386.28 31.115 386.042C31.1619 385.982 31.2087 385.922 31.257 385.86C31.6207 385.397 31.9918 384.941 32.3644 384.486C32.8294 383.917 33.2812 383.34 33.7244 382.754C34.2448 382.066 34.7841 381.397 35.3347 380.734C35.9069 380.043 36.4602 379.34 37.0107 378.632C37.6692 377.788 38.3359 376.951 39.0133 376.121C39.3593 375.696 39.6977 375.266 40.0301 374.83C40.4737 374.248 40.9322 373.68 41.3949 373.113C41.9558 372.425 42.5036 371.727 43.0495 371.028C43.6452 370.264 44.2454 369.505 44.8585 368.755C45.3236 368.186 45.7754 367.609 46.2186 367.023C46.7389 366.336 47.2782 365.667 47.8289 365.003C48.401 364.313 48.9544 363.609 49.5048 362.902C50.1634 362.057 50.8301 361.22 51.5074 360.391C51.8535 359.965 52.1919 359.536 52.5242 359.1C52.9679 358.518 53.4264 357.949 53.8891 357.382C54.4499 356.695 54.9978 355.997 55.5437 355.297C56.1394 354.534 56.7395 353.775 57.3527 353.025C57.8178 352.456 58.2695 351.879 58.7127 351.293C59.2331 350.606 59.7724 349.937 60.323 349.273C60.8952 348.583 61.4485 347.879 61.999 347.172C62.6575 346.327 63.3242 345.49 64.0016 344.66C64.3476 344.235 64.686 343.805 65.0184 343.369C65.462 342.787 65.9205 342.219 66.3833 341.652C66.9441 340.964 67.4919 340.267 68.0378 339.567C68.6335 338.803 69.2337 338.044 69.8469 337.295C70.3119 336.726 70.7637 336.149 71.2069 335.563C71.7273 334.875 72.2665 334.206 72.8172 333.543C73.3893 332.853 73.9427 332.149 74.4931 331.442C74.6794 331.203 74.866 330.964 75.0528 330.725C75.0996 330.665 75.1465 330.606 75.1948 330.544C75.5585 330.081 75.9296 329.625 76.3022 329.169C76.7672 328.6 77.219 328.023 77.6622 327.437C78.1774 326.756 78.7123 326.095 79.2585 325.439C79.6788 324.931 80.083 324.414 80.4799 323.889C80.9979 323.203 81.5349 322.536 82.0837 321.875C82.6558 321.185 83.2092 320.481 83.7596 319.774C83.9459 319.535 84.1325 319.296 84.3193 319.058C84.3661 318.998 84.413 318.938 84.4613 318.876C84.825 318.414 85.1961 317.957 85.5687 317.502C86.0337 316.933 86.4855 316.356 86.9287 315.77C87.4491 315.082 87.9883 314.413 88.539 313.75C89.1112 313.06 89.6645 312.356 90.2149 311.648C90.8735 310.804 91.5402 309.967 92.2175 309.137C92.5636 308.712 92.902 308.282 93.2344 307.846C93.678 307.264 94.1365 306.696 94.5992 306.129C95.1601 305.441 95.7079 304.743 96.2538 304.044C96.8495 303.28 97.4497 302.521 98.0628 301.771C98.5279 301.203 98.9797 300.626 99.4229 300.04C99.9432 299.352 100.482 298.683 101.033 298.02C101.605 297.329 102.159 296.626 102.709 295.918C102.895 295.679 103.082 295.441 103.269 295.202C103.316 295.142 103.362 295.082 103.411 295.021C103.774 294.558 104.146 294.101 104.518 293.646C104.983 293.077 105.435 292.5 105.878 291.914C106.393 291.233 106.928 290.572 107.475 289.915C107.895 289.408 108.299 288.891 108.696 288.366C109.214 287.68 109.751 287.013 110.3 286.352C110.872 285.662 111.425 284.958 111.976 284.251C112.162 284.012 112.348 283.773 112.535 283.535C112.582 283.475 112.629 283.415 112.677 283.353C113.041 282.89 113.412 282.434 113.785 281.978C114.25 281.41 114.701 280.833 115.145 280.247C115.665 279.559 116.204 278.89 116.755 278.226C117.327 277.536 117.88 276.833 118.431 276.125C119.089 275.28 119.756 274.443 120.434 273.614C120.78 273.188 121.118 272.759 121.45 272.323C121.894 271.741 122.352 271.173 122.815 270.606C123.376 269.918 123.924 269.22 124.47 268.521C125.065 267.757 125.666 266.998 126.279 266.248C126.744 265.679 127.196 265.102 127.639 264.516C128.159 263.829 128.698 263.16 129.249 262.496C129.821 261.806 130.375 261.102 130.925 260.395C131.584 259.55 132.25 258.713 132.928 257.883C133.274 257.458 133.612 257.029 133.944 256.593C134.388 256.011 134.847 255.442 135.309 254.875C135.87 254.188 136.418 253.49 136.964 252.79C137.56 252.027 138.16 251.268 138.773 250.518C139.238 249.949 139.69 249.372 140.133 248.786C140.653 248.098 141.193 247.429 141.743 246.766C142.315 246.076 142.869 245.372 143.419 244.665C143.605 244.426 143.792 244.187 143.979 243.948C144.026 243.889 144.073 243.829 144.121 243.767C144.485 243.304 144.856 242.848 145.228 242.392C145.693 241.824 146.145 241.247 146.588 240.661C147.104 239.979 147.638 239.318 148.185 238.662C148.605 238.155 149.009 237.638 149.406 237.112C149.924 236.426 150.461 235.76 151.01 235.098C151.582 234.408 152.135 233.705 152.686 232.997C152.872 232.758 153.059 232.52 153.245 232.281C153.292 232.221 153.339 232.161 153.387 232.1C153.751 231.637 154.122 231.18 154.495 230.725C154.96 230.156 155.412 229.579 155.855 228.993C156.375 228.305 156.914 227.636 157.465 226.973C158.037 226.283 158.591 225.579 159.141 224.872C159.8 224.027 160.466 223.19 161.144 222.36C161.49 221.935 161.828 221.505 162.16 221.069C162.604 220.487 163.063 219.919 163.525 219.352C164.086 218.664 164.634 217.967 165.18 217.267C165.776 216.503 166.376 215.744 166.989 214.995C167.454 214.426 167.906 213.849 168.349 213.263C168.869 212.575 169.409 211.906 169.959 211.243C170.531 210.553 171.085 209.849 171.635 209.141C171.821 208.902 172.008 208.664 172.195 208.425C172.242 208.365 172.289 208.305 172.337 208.244C172.701 207.781 173.072 207.325 173.444 206.869C173.909 206.3 174.361 205.723 174.804 205.137C175.32 204.456 175.854 203.795 176.401 203.138C176.821 202.631 177.225 202.114 177.622 201.589C178.14 200.903 178.677 200.236 179.226 199.575C179.798 198.885 180.351 198.181 180.902 197.474C181.088 197.235 181.275 196.996 181.461 196.758C181.508 196.698 181.555 196.638 181.603 196.576C181.967 196.114 182.338 195.657 182.711 195.202C183.176 194.633 183.628 194.056 184.071 193.47C184.591 192.782 185.13 192.113 185.681 191.45C186.253 190.76 186.807 190.056 187.357 189.348C188.016 188.504 188.682 187.667 189.36 186.837C189.706 186.412 190.044 185.982 190.376 185.546C190.82 184.964 191.279 184.396 191.741 183.829C192.302 183.141 192.85 182.443 193.396 181.744C193.992 180.98 194.592 180.221 195.205 179.471C195.67 178.903 196.122 178.326 196.565 177.74C197.085 177.052 197.625 176.383 198.175 175.719C198.747 175.029 199.301 174.326 199.851 173.618C200.037 173.379 200.224 173.14 200.411 172.902C200.481 172.812 200.481 172.812 200.553 172.721C200.917 172.258 201.288 171.801 201.66 171.346C202.125 170.777 202.577 170.2 203.02 169.614C203.535 168.933 204.07 168.271 204.617 167.615C205.037 167.108 205.441 166.591 205.838 166.066C206.356 165.38 206.893 164.713 207.442 164.052C208.014 163.362 208.567 162.658 209.118 161.951C209.304 161.712 209.49 161.473 209.677 161.234C209.748 161.145 209.748 161.145 209.819 161.053C210.239 160.519 210.668 159.994 211.098 159.469C211.508 158.965 211.903 158.452 212.293 157.933C212.883 157.153 213.51 156.414 214.157 155.682C214.38 155.428 214.597 155.17 214.815 154.912C215.29 154.351 215.776 153.816 216.303 153.303C216.493 153.113 216.668 152.917 216.842 152.712C217.591 151.84 218.426 151.015 219.303 150.272C219.557 150.051 219.802 149.821 220.048 149.59C220.721 148.958 221.411 148.36 222.132 147.783C222.256 147.681 222.38 147.578 222.504 147.476C223.565 146.599 224.659 145.774 225.777 144.97C225.861 144.909 225.945 144.849 226.032 144.786C234.392 138.772 244.361 134.853 259.719 132.886C259.807 132.88 259.894 132.874 259.984 132.868C268.2 132.332 276.48 133.494 305.283 147.53Z" fill="#AEF84F"></path>
<path d="M239.727 3.91894C239.833 3.96939 239.938 4.01985 240.047 4.07184C241.552 4.79558 243 5.59439 244.432 6.45258C244.707 6.61675 244.984 6.77837 245.261 6.93916C246.625 7.73594 247.919 8.62328 249.202 9.54432C249.292 9.6086 249.381 9.67287 249.474 9.73909C250.572 10.5303 251.637 11.3557 252.679 12.2192C252.906 12.4065 253.136 12.5904 253.367 12.7737C253.232 13.0586 253.084 13.3059 252.893 13.5562C252.814 13.6604 252.814 13.6604 252.733 13.7667C252.676 13.8408 252.619 13.9149 252.56 13.9912C252.5 14.069 252.441 14.1468 252.379 14.227C251.891 14.8583 251.388 15.4753 250.878 16.0892C250.306 16.7793 249.753 17.4832 249.202 18.1908C248.544 19.0355 247.877 19.8725 247.2 20.7023C246.853 21.1275 246.515 21.5571 246.183 21.9931C245.739 22.5751 245.281 23.1434 244.818 23.7103C244.257 24.3981 243.709 25.0957 243.163 25.7954C242.568 26.5591 241.967 27.318 241.354 28.0677C240.889 28.6366 240.437 29.2136 239.994 29.7996C239.474 30.4872 238.935 31.1562 238.384 31.8197C237.812 32.5098 237.258 33.2135 236.708 33.921C236.522 34.1599 236.335 34.3987 236.148 34.6372C236.101 34.6971 236.055 34.757 236.006 34.8186C235.643 35.2814 235.272 35.7377 234.899 36.1933C234.434 36.7621 233.982 37.3392 233.539 37.9252C233.024 38.6063 232.489 39.2677 231.943 39.924C231.522 40.4311 231.118 40.948 230.721 41.4736C230.203 42.1593 229.666 42.826 229.117 43.4872C228.545 44.1773 227.992 44.881 227.441 45.5885C227.255 45.8274 227.069 46.0661 226.882 46.3047C226.835 46.3646 226.788 46.4244 226.74 46.4861C226.376 46.9489 226.005 47.4052 225.632 47.8608C225.167 48.4296 224.716 49.0066 224.272 49.5927C223.752 50.2803 223.213 50.9493 222.662 51.6128C222.09 52.3029 221.537 53.0066 220.986 53.714C220.328 54.5588 219.661 55.3958 218.984 56.2256C218.637 56.6508 218.299 57.0804 217.967 57.5164C217.523 58.0984 217.065 58.6667 216.602 59.2336C216.041 59.9214 215.493 60.619 214.947 61.3187C214.352 62.0823 213.751 62.8413 213.138 63.591C212.673 64.1599 212.221 64.7369 211.778 65.3229C211.258 66.0105 210.719 66.6795 210.168 67.343C209.596 68.0331 209.042 68.7368 208.492 69.4443C208.306 69.6832 208.119 69.922 207.932 70.1605C207.885 70.2204 207.839 70.2802 207.79 70.3419C207.427 70.8047 207.056 71.261 206.683 71.7166C206.218 72.2854 205.766 72.8625 205.323 73.4485C204.808 74.1296 204.273 74.7909 203.727 75.4473C203.306 75.9544 202.902 76.4713 202.505 76.9969C201.987 77.6826 201.45 78.3493 200.901 79.0105C200.329 79.7006 199.776 80.4043 199.226 81.1118C199.039 81.3507 198.853 81.5894 198.666 81.828C198.619 81.8878 198.572 81.9477 198.524 82.0094C198.16 82.4722 197.789 82.9285 197.416 83.3841C196.951 83.9529 196.5 84.5299 196.056 85.116C195.536 85.8036 194.997 86.4725 194.446 87.136C193.874 87.8261 193.321 88.5299 192.77 89.2373C192.112 90.0821 191.445 90.9191 190.768 91.7488C190.422 92.174 190.083 92.6036 189.751 93.0397C189.307 93.6217 188.849 94.19 188.386 94.7569C187.825 95.4447 187.277 96.1423 186.731 96.842C186.136 97.6056 185.535 98.3646 184.922 99.1143C184.457 99.6832 184.005 100.26 183.562 100.846C183.042 101.534 182.503 102.203 181.952 102.866C181.38 103.556 180.826 104.26 180.276 104.968C179.617 105.812 178.951 106.649 178.273 107.479C177.927 107.904 177.589 108.334 177.257 108.77C176.813 109.352 176.354 109.92 175.892 110.487C175.331 111.175 174.783 111.873 174.237 112.572C173.641 113.336 173.041 114.095 172.428 114.845C171.963 115.413 171.511 115.99 171.068 116.576C170.548 117.264 170.008 117.933 169.458 118.597C168.886 119.287 168.332 119.99 167.782 120.698C167.596 120.937 167.409 121.175 167.222 121.414C167.175 121.474 167.128 121.534 167.08 121.595C166.717 122.058 166.345 122.515 165.973 122.97C165.508 123.539 165.056 124.116 164.613 124.702C164.098 125.383 163.563 126.044 163.016 126.701C162.596 127.208 162.192 127.725 161.795 128.25C161.277 128.936 160.74 129.603 160.191 130.264C159.619 130.954 159.066 131.658 158.515 132.365C158.329 132.604 158.143 132.843 157.956 133.081C157.909 133.141 157.862 133.201 157.814 133.263C157.45 133.726 157.079 134.182 156.706 134.638C156.241 135.206 155.789 135.783 155.346 136.369C154.826 137.057 154.287 137.726 153.736 138.39C153.164 139.08 152.611 139.783 152.06 140.491C151.402 141.336 150.735 142.173 150.057 143.002C149.711 143.428 149.373 143.857 149.041 144.293C148.597 144.875 148.139 145.444 147.676 146.01C147.115 146.698 146.567 147.396 146.021 148.096C145.425 148.859 144.825 149.618 144.212 150.368C143.747 150.937 143.295 151.514 142.852 152.1C142.332 152.787 141.793 153.456 141.242 154.12C140.67 154.81 140.116 155.514 139.566 156.221C139.38 156.46 139.193 156.699 139.006 156.937C138.959 156.997 138.913 157.057 138.864 157.119C138.501 157.582 138.129 158.038 137.757 158.493C137.292 159.062 136.84 159.639 136.397 160.225C135.882 160.906 135.347 161.568 134.801 162.224C134.38 162.731 133.976 163.248 133.579 163.774C133.061 164.459 132.524 165.126 131.975 165.787C131.403 166.477 130.85 167.181 130.299 167.889C130.113 168.128 129.927 168.366 129.74 168.605C129.693 168.665 129.646 168.725 129.598 168.786C129.234 169.249 128.863 169.705 128.49 170.161C128.025 170.73 127.574 171.307 127.13 171.893C126.61 172.58 126.071 173.249 125.52 173.913C124.948 174.603 124.395 175.307 123.844 176.014C123.186 176.859 122.519 177.696 121.841 178.526C121.495 178.951 121.157 179.38 120.825 179.816C120.381 180.398 119.923 180.967 119.46 181.534C118.899 182.222 118.351 182.919 117.805 183.619C117.21 184.382 116.609 185.141 115.996 185.891C115.531 186.46 115.079 187.037 114.636 187.623C114.116 188.311 113.577 188.98 113.026 189.643C112.454 190.333 111.9 191.037 111.35 191.744C111.164 191.983 110.977 192.222 110.79 192.461C110.743 192.52 110.697 192.58 110.648 192.642C110.285 193.105 109.913 193.561 109.541 194.017C109.076 194.586 108.624 195.163 108.181 195.749C107.666 196.43 107.131 197.091 106.585 197.747C106.164 198.255 105.76 198.771 105.363 199.297C104.845 199.983 104.308 200.649 103.759 201.311C103.187 202.001 102.634 202.704 102.083 203.412C101.897 203.651 101.711 203.89 101.524 204.128C101.477 204.188 101.43 204.248 101.382 204.31C101.018 204.772 100.647 205.229 100.274 205.684C99.8093 206.253 99.3576 206.83 98.9144 207.416C98.394 208.104 97.8547 208.773 97.3041 209.436C96.7319 210.126 96.1786 210.83 95.6281 211.537C94.9696 212.382 94.3029 213.219 93.6255 214.049C93.2794 214.474 92.9411 214.904 92.6087 215.34C92.1651 215.922 91.7066 216.49 91.2438 217.057C90.683 217.745 90.1352 218.442 89.5893 219.142C88.9936 219.906 88.3934 220.665 87.7802 221.414C87.3152 221.983 86.8634 222.56 86.4202 223.146C85.8998 223.834 85.3606 224.503 84.8099 225.166C84.2378 225.857 83.6844 226.56 83.134 227.268C82.9477 227.507 82.7611 227.745 82.5743 227.984C82.5275 228.044 82.4806 228.104 82.4323 228.165C82.0686 228.628 81.6975 229.084 81.3249 229.54C80.8599 230.109 80.4081 230.686 79.9649 231.272C79.4497 231.953 78.9148 232.614 78.3686 233.271C77.9483 233.778 77.5441 234.295 77.1472 234.82C76.6292 235.506 76.0922 236.173 75.5434 236.834C74.9713 237.524 74.4179 238.228 73.8675 238.935C73.6812 239.174 73.4946 239.413 73.3078 239.651C73.261 239.711 73.2141 239.771 73.1658 239.833C72.8021 240.296 72.431 240.752 72.0584 241.207C71.5934 241.776 71.1416 242.353 70.6984 242.939C70.178 243.627 69.6388 244.296 69.0881 244.959C68.5159 245.65 67.9626 246.353 67.4122 247.061C66.7536 247.905 66.0869 248.742 65.4096 249.572C65.0635 249.997 64.7251 250.427 64.3927 250.863C63.9491 251.445 63.4906 252.013 63.0279 252.58C62.467 253.268 61.9192 253.966 61.3733 254.665C60.7776 255.429 60.1774 256.188 59.5643 256.938C59.0992 257.507 58.6474 258.084 58.2042 258.67C57.6839 259.357 57.1446 260.026 56.594 260.69C56.0218 261.38 55.4685 262.084 54.918 262.791C54.2594 263.636 53.5927 264.473 52.9154 265.303C52.5693 265.728 52.2309 266.157 51.8986 266.593C51.4549 267.175 50.9964 267.744 50.5337 268.311C49.9729 268.998 49.4251 269.696 48.8792 270.396C48.2834 271.159 47.6833 271.918 47.0701 272.668C46.6051 273.237 46.1533 273.814 45.7101 274.4C45.1897 275.087 44.6505 275.756 44.0998 276.42C43.5276 277.11 42.9743 277.814 42.4238 278.521C42.2376 278.76 42.051 278.999 41.8642 279.237C41.8173 279.297 41.7704 279.357 41.7221 279.419C41.3585 279.882 40.9874 280.338 40.6148 280.794C40.1497 281.362 39.698 281.939 39.2548 282.525C38.7395 283.206 38.2047 283.868 37.6584 284.524C37.2382 285.031 36.8339 285.548 36.4371 286.074C35.9191 286.76 35.382 287.426 34.8333 288.087C34.2611 288.778 33.7078 289.481 33.1573 290.189C32.9711 290.428 32.7845 290.666 32.5977 290.905C32.5508 290.965 32.5039 291.025 32.4556 291.086C32.092 291.549 31.7209 292.005 31.3483 292.461C30.8832 293.03 30.4315 293.607 29.9883 294.193C29.4685 294.88 28.9301 295.548 28.38 296.21C27.979 296.694 27.5844 297.182 27.1966 297.676C27.1493 297.736 27.1021 297.796 27.0534 297.858C26.8571 298.11 26.6707 298.361 26.4938 298.627C26.1998 298.49 25.9587 298.337 25.7088 298.131C25.6404 298.075 25.5719 298.019 25.5014 297.961C25.3935 297.872 25.3935 297.872 25.2834 297.78C25.1326 297.656 24.9817 297.532 24.8308 297.408C24.7581 297.349 24.6855 297.289 24.6107 297.227C24.3709 297.031 24.1279 296.839 23.8843 296.647C22.0592 295.187 20.3835 293.563 18.7305 291.914C18.6717 291.856 18.6128 291.797 18.5522 291.737C17.9142 291.1 17.2906 290.459 16.7067 289.772C16.5553 289.605 16.4035 289.437 16.2512 289.271C15.3989 288.324 14.6134 287.321 13.8337 286.314C13.74 286.194 13.646 286.074 13.5514 285.954C11.8244 283.761 10.2781 281.362 8.89785 278.938C8.85402 278.861 8.81018 278.785 8.76501 278.706C8.45536 278.162 8.15469 277.613 7.85667 277.063C7.79097 276.943 7.79097 276.943 7.72393 276.82C6.14323 273.927 4.90107 270.893 3.79607 267.791C3.77135 267.722 3.74663 267.653 3.72116 267.581C2.46616 264.044 1.58157 260.348 0.984888 256.645C0.964957 256.521 0.945026 256.398 0.924492 256.271C0.785811 255.391 0.672454 254.509 0.568416 253.624C0.552696 253.499 0.536977 253.375 0.52078 253.246C-0.0449571 248.622 -0.0636489 243.571 0.539413 238.95C0.570853 238.708 0.600987 238.466 0.631101 238.225C0.955569 235.653 1.42095 233.121 2.02607 230.601C2.04249 230.533 2.0589 230.464 2.07581 230.393C3.97415 222.495 7.48137 214.584 12.3904 208.094C12.5578 207.87 12.7219 207.644 12.8857 207.418C13.544 206.51 14.2212 205.627 14.9396 204.766C15.3854 204.231 15.811 203.686 16.2321 203.132C16.5381 202.732 16.8567 202.343 17.1752 201.953C17.5822 201.456 17.9828 200.954 18.3726 200.443C18.8162 199.861 19.2747 199.293 19.7375 198.726C20.2983 198.038 20.8461 197.34 21.392 196.641C21.9877 195.877 22.5879 195.118 23.2011 194.368C23.6661 193.799 24.1179 193.222 24.5611 192.636C25.0815 191.949 25.6207 191.28 26.1714 190.616C26.7435 189.926 27.2969 189.222 27.8473 188.515C28.0336 188.276 28.2202 188.037 28.407 187.799C28.4538 187.739 28.5007 187.679 28.549 187.617C28.9127 187.155 29.2838 186.698 29.6564 186.243C30.1214 185.674 30.5732 185.097 31.0164 184.511C31.5317 183.83 32.0665 183.168 32.6127 182.512C33.033 182.005 33.4372 181.488 33.8341 180.962C34.3521 180.277 34.8891 179.61 35.4379 178.949C36.01 178.259 36.5634 177.555 37.1138 176.848C37.3001 176.609 37.4867 176.37 37.6735 176.131C37.7203 176.071 37.7672 176.012 37.8155 175.95C38.1792 175.487 38.5503 175.031 38.9229 174.575C39.3879 174.006 39.8397 173.429 40.2829 172.843C40.8033 172.156 41.3425 171.487 41.8932 170.823C42.4654 170.133 43.0187 169.429 43.5691 168.722C44.2277 167.877 44.8944 167.04 45.5717 166.21C45.9178 165.785 46.2562 165.356 46.5886 164.92C47.0322 164.338 47.4907 163.769 47.9534 163.202C48.5143 162.515 49.0621 161.817 49.608 161.117C50.2037 160.354 50.8039 159.595 51.417 158.845C51.8821 158.276 52.3339 157.699 52.7771 157.113C53.2974 156.425 53.8367 155.757 54.3873 155.093C54.9595 154.403 55.5128 153.699 56.0633 152.992C56.7219 152.147 57.3885 151.31 58.0659 150.48C58.412 150.055 58.7504 149.625 59.0827 149.189C59.5263 148.607 59.9849 148.039 60.4476 147.472C61.0084 146.784 61.5562 146.087 62.1021 145.387C62.6979 144.623 63.298 143.864 63.9112 143.115C64.3762 142.546 64.828 141.969 65.2712 141.383C65.7916 140.695 66.3308 140.026 66.8815 139.363C67.4537 138.673 68.007 137.969 68.5575 137.261C68.7437 137.023 68.9303 136.784 69.1171 136.545C69.164 136.485 69.2109 136.426 69.2592 136.364C69.6228 135.901 69.9939 135.445 70.3665 134.989C70.8316 134.42 71.2833 133.843 71.7265 133.257C72.2418 132.576 72.7766 131.915 73.3229 131.258C73.7431 130.751 74.1474 130.234 74.5442 129.709C75.0622 129.023 75.5993 128.356 76.148 127.695C76.7202 127.005 77.2735 126.301 77.824 125.594C78.0102 125.355 78.1968 125.116 78.3836 124.878C78.4305 124.818 78.4774 124.758 78.5257 124.696C78.8893 124.234 79.2604 123.777 79.633 123.322C80.0981 122.753 80.5498 122.176 80.993 121.59C81.5134 120.902 82.0527 120.233 82.6033 119.57C83.1755 118.88 83.7288 118.176 84.2793 117.468C84.9378 116.624 85.6045 115.787 86.2819 114.957C86.6279 114.532 86.9663 114.102 87.2987 113.666C87.7423 113.084 88.2008 112.516 88.6636 111.949C89.2244 111.261 89.7722 110.563 90.3181 109.864C90.9138 109.1 91.514 108.341 92.1272 107.591C92.5922 107.023 93.044 106.446 93.4872 105.86C94.0076 105.172 94.5468 104.503 95.0975 103.839C95.6696 103.149 96.223 102.446 96.7734 101.738C96.9597 101.499 97.1463 101.261 97.3331 101.022C97.3799 100.962 97.4268 100.902 97.4751 100.841C97.8388 100.378 98.2099 99.9215 98.5825 99.4659C99.0475 98.8971 99.4993 98.32 99.9425 97.734C100.458 97.0529 100.993 96.3915 101.539 95.7352C101.959 95.2281 102.363 94.7112 102.76 94.1856C103.278 93.4999 103.815 92.8332 104.364 92.172C104.936 91.4819 105.489 90.7782 106.04 90.0707C106.226 89.8318 106.413 89.593 106.6 89.3545C106.646 89.2946 106.693 89.2348 106.742 89.1731C107.105 88.7103 107.476 88.254 107.849 87.7984C108.314 87.2296 108.766 86.6525 109.209 86.0665C109.729 85.3789 110.269 84.7099 110.819 84.0464C111.391 83.3563 111.945 82.6526 112.495 81.9452C113.154 81.1004 113.82 80.2634 114.498 79.4336C114.844 79.0084 115.182 78.5788 115.515 78.1428C115.958 77.5608 116.417 76.9925 116.88 76.4256C117.44 75.7378 117.988 75.0402 118.534 74.3405C119.13 73.5769 119.73 72.8179 120.343 72.0682C120.808 71.4993 121.26 70.9223 121.703 70.3363C122.224 69.6487 122.763 68.9797 123.313 68.3162C123.886 67.6261 124.439 66.9224 124.989 66.2149C125.176 65.976 125.362 65.7372 125.549 65.4987C125.596 65.4388 125.643 65.379 125.691 65.3173C126.055 64.8545 126.426 64.3982 126.798 63.9426C127.263 63.3738 127.715 62.7967 128.158 62.2107C128.674 61.5296 129.209 60.8683 129.755 60.2119C130.175 59.7048 130.579 59.1879 130.976 58.6623C131.494 57.9766 132.031 57.3099 132.58 56.6487C133.152 55.9586 133.705 55.2549 134.256 54.5474C134.442 54.3085 134.629 54.0698 134.816 53.8312C134.862 53.7714 134.909 53.7115 134.958 53.6498C135.321 53.187 135.692 52.7307 136.065 52.2751C136.53 51.7063 136.982 51.1293 137.425 50.5432C137.945 49.8556 138.485 49.1866 139.035 48.5232C139.607 47.8331 140.161 47.1293 140.711 46.4219C141.37 45.5771 142.036 44.7401 142.714 43.9104C143.06 43.4852 143.398 43.0555 143.731 42.6195C144.174 42.0375 144.633 41.4692 145.095 40.9023C145.656 40.2145 146.204 39.5169 146.75 38.8172C147.346 38.0536 147.946 37.2946 148.559 36.5449C149.024 35.976 149.476 35.399 149.919 34.813C150.439 34.1254 150.979 33.4564 151.529 32.7929C152.102 32.1028 152.655 31.3991 153.205 30.6916C153.392 30.4527 153.578 30.2139 153.765 29.9754C153.835 29.8856 153.835 29.8856 153.907 29.794C154.271 29.3312 154.642 28.8749 155.014 28.4193C155.479 27.8505 155.931 27.2735 156.374 26.6874C156.89 26.0066 157.424 25.3453 157.97 24.6893C158.396 24.176 158.804 23.6519 159.205 23.1195C159.723 22.433 160.266 21.7758 160.831 21.1276C161.087 20.834 161.331 20.5329 161.574 20.2287C162.075 19.6102 162.62 19.0352 163.166 18.4565C163.437 18.1688 163.701 17.876 163.962 17.5787C164.405 17.0826 164.872 16.6111 165.342 16.1398C165.452 16.0284 165.452 16.0284 165.565 15.9146C165.983 15.498 166.411 15.1 166.858 14.7147C167.149 14.4614 167.429 14.1967 167.71 13.9326C168.304 13.3807 168.92 12.8645 169.552 12.357C169.676 12.2546 169.8 12.1521 169.924 12.0494C172.566 9.86533 175.427 7.9137 178.402 6.21076C178.478 6.16715 178.554 6.12354 178.632 6.07861C179.176 5.76797 179.725 5.46623 180.276 5.16902C180.367 5.12016 180.457 5.07129 180.55 5.02095C188.504 0.749819 197.313 -1.66911 239.727 3.91894Z" fill="#AEF84F"></path>
<path d="M305.947 247.269C306.397 247.562 306.827 247.874 307.249 248.207C307.311 248.256 307.374 248.305 307.438 248.356C308.138 248.912 308.814 249.495 309.487 250.082C309.566 250.15 309.646 250.219 309.727 250.29C310.278 250.769 310.821 251.258 311.361 251.749C311.514 251.887 311.514 251.887 311.67 252.028C312.324 252.623 312.961 253.234 313.587 253.858C313.655 253.926 313.723 253.993 313.793 254.063C314.191 254.462 314.569 254.874 314.937 255.301C315.191 255.593 315.457 255.874 315.721 256.156C316.273 256.75 316.789 257.366 317.296 257.999C317.398 258.123 317.501 258.247 317.604 258.371C323.635 265.678 328.037 274.507 331.873 292.481C331.882 292.558 331.892 292.635 331.902 292.714C332.475 297.361 332.439 302.316 331.873 306.961C331.858 307.093 331.843 307.225 331.827 307.361C330.716 317.051 327.37 326.418 320.94 336.546C320.89 336.62 320.839 336.693 320.787 336.769C319.717 338.32 318.57 339.807 317.389 341.275C317.097 341.638 316.809 342.005 316.522 342.373C316.107 342.904 315.685 343.427 315.259 343.949C314.767 344.552 314.289 345.164 313.817 345.783C313.516 346.175 313.203 346.556 312.891 346.937C312.423 347.508 311.969 348.087 311.524 348.676C311.004 349.363 310.464 350.032 309.914 350.696C309.342 351.386 308.788 352.09 308.238 352.797C308.052 353.036 307.865 353.275 307.678 353.513C307.631 353.573 307.584 353.633 307.536 353.695C307.173 354.158 306.801 354.614 306.429 355.069C305.964 355.638 305.512 356.215 305.069 356.801C304.554 357.482 304.019 358.144 303.472 358.8C303.052 359.307 302.648 359.824 302.251 360.35C301.733 361.035 301.196 361.702 300.647 362.363C300.075 363.054 299.522 363.757 298.971 364.465C298.785 364.704 298.599 364.942 298.412 365.181C298.365 365.241 298.318 365.301 298.27 365.362C297.906 365.825 297.535 366.281 297.162 366.737C296.697 367.306 296.245 367.883 295.802 368.469C295.282 369.156 294.743 369.825 294.192 370.489C293.62 371.179 293.067 371.883 292.516 372.59C291.857 373.435 291.191 374.272 290.513 375.102C290.167 375.527 289.829 375.957 289.497 376.393C289.053 376.975 288.594 377.543 288.132 378.11C287.571 378.798 287.023 379.495 286.477 380.195C285.881 380.959 285.281 381.718 284.668 382.467C284.203 383.036 283.751 383.613 283.308 384.199C282.788 384.887 282.249 385.556 281.698 386.219C281.126 386.909 280.572 387.613 280.022 388.32C279.836 388.559 279.649 388.798 279.462 389.037C279.415 389.097 279.368 389.156 279.32 389.218C278.957 389.681 278.585 390.137 278.213 390.593C277.748 391.162 277.296 391.739 276.853 392.325C276.338 393.006 275.803 393.667 275.256 394.323C274.836 394.831 274.432 395.348 274.035 395.873C273.517 396.559 272.98 397.225 272.431 397.887C271.859 398.577 271.306 399.28 270.755 399.988C270.569 400.227 270.383 400.466 270.196 400.704C270.149 400.764 270.102 400.824 270.054 400.886C269.69 401.348 269.319 401.805 268.946 402.26C268.481 402.829 268.03 403.406 267.586 403.992C267.066 404.68 266.527 405.349 265.976 406.012C265.404 406.702 264.851 407.406 264.3 408.114C263.642 408.958 262.975 409.795 262.297 410.625C261.951 411.05 261.613 411.48 261.281 411.916C260.837 412.498 260.379 413.066 259.916 413.633C259.355 414.321 258.807 415.018 258.261 415.718C257.666 416.482 257.065 417.241 256.452 417.99C255.987 418.559 255.535 419.136 255.092 419.722C254.572 420.41 254.033 421.079 253.482 421.742C252.91 422.433 252.356 423.136 251.806 423.844C251.62 424.083 251.433 424.321 251.246 424.56C251.199 424.62 251.153 424.68 251.104 424.741C250.741 425.204 250.369 425.66 249.997 426.116C249.532 426.685 249.08 427.262 248.637 427.848C248.122 428.529 247.587 429.19 247.041 429.847C246.62 430.354 246.216 430.871 245.819 431.396C245.301 432.082 244.764 432.749 244.215 433.41C243.643 434.1 243.09 434.804 242.539 435.511C242.353 435.75 242.167 435.989 241.98 436.227C241.933 436.287 241.886 436.347 241.838 436.409C241.474 436.872 241.103 437.328 240.73 437.784C240.265 438.352 239.814 438.929 239.37 439.515C238.85 440.203 238.311 440.872 237.76 441.536C237.188 442.226 236.635 442.929 236.084 443.637C235.426 444.482 234.759 445.319 234.082 446.148C233.735 446.574 233.397 447.003 233.065 447.439C232.621 448.021 232.163 448.589 231.7 449.156C231.139 449.844 230.591 450.542 230.045 451.241C229.45 452.005 228.849 452.764 228.236 453.514C227.771 454.083 227.319 454.66 226.876 455.246C226.356 455.933 225.817 456.602 225.266 457.266C224.694 457.956 224.14 458.66 223.59 459.367C223.404 459.606 223.217 459.845 223.03 460.083C222.983 460.143 222.937 460.203 222.888 460.265C222.525 460.727 222.154 461.184 221.781 461.639C221.316 462.208 220.864 462.785 220.421 463.371C219.906 464.052 219.371 464.714 218.825 465.37C218.404 465.877 218 466.394 217.603 466.92C217.085 467.605 216.548 468.272 215.999 468.933C215.427 469.623 214.874 470.327 214.323 471.035C214.137 471.273 213.951 471.512 213.764 471.751C213.717 471.811 213.67 471.87 213.622 471.932C213.258 472.395 212.887 472.851 212.514 473.307C212.049 473.876 211.598 474.453 211.154 475.039C210.634 475.726 210.095 476.395 209.544 477.059C208.972 477.749 208.419 478.453 207.868 479.16C207.21 480.005 206.543 480.842 205.866 481.672C205.519 482.097 205.181 482.526 204.849 482.962C204.405 483.544 203.947 484.113 203.484 484.68C202.923 485.367 202.375 486.065 201.829 486.765C201.234 487.528 200.633 488.287 200.02 489.037C199.555 489.606 199.103 490.183 198.66 490.769C198.14 491.457 197.601 492.126 197.05 492.789C196.478 493.479 195.924 494.183 195.374 494.89C194.715 495.735 194.049 496.572 193.371 497.402C193.025 497.827 192.687 498.257 192.355 498.693C191.911 499.275 191.452 499.843 190.99 500.41C190.429 501.098 189.881 501.795 189.335 502.495C188.739 503.259 188.139 504.018 187.526 504.767C187.061 505.336 186.609 505.913 186.166 506.499C185.646 507.187 185.106 507.856 184.556 508.519C183.984 509.209 183.43 509.913 182.88 510.621C182.694 510.86 182.507 511.098 182.32 511.337C182.273 511.397 182.226 511.457 182.178 511.518C181.814 511.981 181.443 512.437 181.071 512.893C180.606 513.462 180.154 514.039 179.711 514.625C179.196 515.306 178.661 515.967 178.114 516.624C177.694 517.131 177.29 517.648 176.893 518.173C176.375 518.859 175.838 519.526 175.289 520.187C174.717 520.877 174.164 521.58 173.613 522.288C172.539 523.67 171.456 525.049 170.273 526.34C170.092 526.538 169.916 526.74 169.741 526.943C168.852 527.961 167.916 528.936 166.963 529.893C166.891 529.965 166.819 530.037 166.745 530.112C166.337 530.519 165.917 530.907 165.481 531.284C165.189 531.538 164.908 531.803 164.627 532.067C164.131 532.528 163.624 532.97 163.096 533.394C162.865 533.579 162.637 533.765 162.409 533.954C161.464 534.737 160.491 535.47 159.489 536.179C159.244 536.352 159.002 536.527 158.759 536.702C150.943 542.307 141.84 545.848 129.135 548.052C128.948 548.075 128.948 548.075 128.757 548.098C128.335 548.146 127.912 548.188 127.489 548.227C127.393 548.236 127.297 548.245 127.198 548.255C125.292 548.428 123.393 548.474 121.481 548.469C121.251 548.468 121.021 548.468 120.791 548.468C118.466 548.464 116.16 548.411 113.85 548.123C113.775 548.114 113.701 548.105 113.624 548.096C106.732 547.253 100.055 545.426 93.7549 542.498C93.6342 542.442 93.5136 542.386 93.3894 542.328C91.6619 541.523 89.9839 540.653 88.3407 539.685C88.2519 539.633 88.163 539.582 88.0714 539.528C85.1704 537.836 82.4702 535.877 79.8423 533.792C79.5912 533.593 79.3409 533.404 79.0742 533.226C79.1362 532.899 79.2346 532.706 79.448 532.452C79.5033 532.385 79.5587 532.318 79.6158 532.249C79.6754 532.178 79.7351 532.108 79.7965 532.035C79.9213 531.884 80.0459 531.734 80.1703 531.583C80.2629 531.471 80.2629 531.471 80.3573 531.357C80.5959 531.064 80.8244 530.766 81.0525 530.466C81.4357 529.963 81.8296 529.47 82.2303 528.981C82.6977 528.41 83.1519 527.831 83.5968 527.243C84.1172 526.555 84.6565 525.886 85.2071 525.223C85.7793 524.533 86.3326 523.829 86.8831 523.121C87.5416 522.277 88.2083 521.44 88.8857 520.61C89.2317 520.185 89.5701 519.755 89.9025 519.319C90.3461 518.737 90.8046 518.169 91.2674 517.602C91.8282 516.914 92.376 516.216 92.9219 515.517C93.5176 514.753 94.1178 513.994 94.731 513.244C95.196 512.676 95.6478 512.099 96.091 511.513C96.6114 510.825 97.1506 510.156 97.7013 509.492C98.2734 508.802 98.8268 508.099 99.3772 507.391C100.036 506.546 100.702 505.709 101.38 504.88C101.726 504.454 102.064 504.025 102.397 503.589C102.84 503.007 103.299 502.439 103.762 501.872C104.322 501.184 104.87 500.486 105.416 499.786C106.012 499.023 106.612 498.264 107.225 497.514C107.69 496.945 108.142 496.368 108.585 495.782C109.106 495.095 109.645 494.426 110.195 493.762C110.768 493.072 111.321 492.368 111.871 491.661C112.058 491.422 112.244 491.183 112.431 490.945C112.478 490.885 112.525 490.825 112.573 490.763C112.937 490.301 113.308 489.844 113.68 489.389C114.145 488.82 114.597 488.243 115.04 487.657C115.556 486.976 116.091 486.314 116.637 485.658C117.057 485.151 117.461 484.634 117.858 484.108C118.376 483.423 118.913 482.756 119.462 482.095C120.034 481.405 120.587 480.701 121.138 479.993C121.324 479.755 121.511 479.516 121.698 479.277C121.744 479.217 121.791 479.158 121.84 479.096C122.203 478.633 122.574 478.177 122.947 477.721C123.412 477.152 123.864 476.575 124.307 475.989C124.827 475.302 125.367 474.633 125.917 473.969C126.489 473.279 127.043 472.575 127.593 471.868C128.252 471.023 128.918 470.186 129.596 469.356C129.942 468.931 130.28 468.502 130.613 468.066C131.056 467.484 131.515 466.915 131.977 466.348C132.538 465.661 133.086 464.963 133.632 464.263C134.228 463.5 134.828 462.741 135.441 461.991C135.906 461.422 136.358 460.845 136.801 460.259C137.321 459.571 137.861 458.902 138.411 458.239C138.984 457.549 139.537 456.845 140.087 456.138C140.274 455.899 140.46 455.66 140.647 455.421C140.694 455.362 140.741 455.302 140.789 455.24C141.153 454.777 141.524 454.321 141.896 453.865C142.361 453.297 142.813 452.719 143.256 452.133C143.772 451.452 144.307 450.791 144.853 450.135C145.273 449.628 145.677 449.111 146.074 448.585C146.592 447.899 147.129 447.233 147.678 446.571C148.25 445.881 148.803 445.178 149.354 444.47C149.54 444.231 149.727 443.993 149.913 443.754C149.96 443.694 150.007 443.634 150.056 443.573C150.419 443.11 150.79 442.653 151.163 442.198C151.628 441.629 152.08 441.052 152.523 440.466C153.043 439.778 153.583 439.109 154.133 438.446C154.705 437.756 155.259 437.052 155.809 436.345C156.468 435.5 157.134 434.663 157.812 433.833C158.158 433.408 158.496 432.978 158.829 432.542C159.272 431.96 159.731 431.392 160.193 430.825C160.754 430.137 161.302 429.44 161.848 428.74C162.444 427.976 163.044 427.217 163.657 426.468C164.122 425.899 164.574 425.322 165.017 424.736C165.537 424.048 166.077 423.379 166.627 422.716C167.2 422.026 167.753 421.322 168.303 420.614C168.962 419.77 169.629 418.933 170.306 418.103C170.652 417.678 170.99 417.248 171.323 416.812C171.766 416.23 172.225 415.662 172.688 415.095C173.248 414.407 173.796 413.709 174.342 413.01C174.938 412.246 175.538 411.487 176.151 410.737C176.616 410.169 177.068 409.592 177.511 409.005C178.032 408.318 178.571 407.649 179.122 406.985C179.694 406.295 180.247 405.592 180.797 404.884C180.984 404.645 181.17 404.406 181.357 404.168C181.404 404.108 181.451 404.048 181.499 403.986C181.863 403.524 182.234 403.067 182.607 402.612C183.072 402.043 183.523 401.466 183.967 400.88C184.482 400.199 185.017 399.537 185.563 398.881C185.983 398.374 186.387 397.857 186.784 397.332C187.302 396.646 187.839 395.979 188.388 395.318C188.96 394.628 189.514 393.924 190.064 393.217C190.25 392.978 190.437 392.739 190.624 392.5C190.67 392.441 190.717 392.381 190.766 392.319C191.129 391.856 191.5 391.4 191.873 390.944C192.338 390.376 192.79 389.798 193.233 389.212C193.753 388.525 194.293 387.856 194.843 387.192C195.415 386.502 195.969 385.799 196.519 385.091C197.178 384.246 197.845 383.409 198.522 382.58C198.868 382.154 199.206 381.725 199.539 381.289C199.982 380.707 200.441 380.138 200.904 379.572C201.464 378.884 202.012 378.186 202.558 377.486C203.154 376.723 203.754 375.964 204.367 375.214C204.832 374.645 205.284 374.068 205.727 373.482C206.248 372.795 206.787 372.126 207.337 371.462C207.91 370.772 208.463 370.068 209.013 369.361C209.2 369.122 209.386 368.883 209.573 368.645C209.62 368.585 209.667 368.525 209.715 368.463C210.079 368 210.45 367.544 210.822 367.089C211.288 366.52 211.739 365.943 212.183 365.357C212.698 364.676 213.233 364.014 213.779 363.358C214.199 362.851 214.603 362.334 215 361.808C215.518 361.123 216.055 360.456 216.604 359.795C217.176 359.105 217.729 358.401 218.28 357.693C218.466 357.454 218.653 357.216 218.84 356.977C218.886 356.917 218.933 356.857 218.982 356.796C219.345 356.333 219.716 355.877 220.089 355.421C220.554 354.852 221.006 354.275 221.449 353.689C221.969 353.002 222.509 352.333 223.059 351.669C223.631 350.979 224.185 350.275 224.735 349.568C225.394 348.723 226.061 347.886 226.738 347.056C227.084 346.631 227.422 346.201 227.755 345.765C228.198 345.183 228.657 344.615 229.12 344.048C229.68 343.36 230.228 342.663 230.774 341.963C231.37 341.2 231.97 340.441 232.583 339.691C233.048 339.122 233.5 338.545 233.943 337.959C234.464 337.271 235.003 336.602 235.553 335.939C236.126 335.249 236.679 334.545 237.229 333.838C237.416 333.599 237.602 333.36 237.789 333.121C237.836 333.061 237.883 333.002 237.931 332.94C238.295 332.477 238.666 332.021 239.038 331.565C239.504 330.996 239.955 330.419 240.398 329.833C240.914 329.152 241.449 328.491 241.995 327.835C242.415 327.327 242.819 326.811 243.216 326.285C243.734 325.599 244.271 324.933 244.82 324.271C245.392 323.581 245.945 322.878 246.496 322.17C246.682 321.931 246.869 321.692 247.056 321.454C247.102 321.394 247.149 321.334 247.198 321.272C247.561 320.81 247.932 320.353 248.305 319.898C248.77 319.329 249.222 318.752 249.665 318.166C250.185 317.478 250.725 316.809 251.275 316.146C251.847 315.456 252.401 314.752 252.951 314.045C253.61 313.2 254.276 312.363 254.954 311.533C255.3 311.108 255.638 310.678 255.971 310.242C256.414 309.66 256.873 309.092 257.336 308.525C257.896 307.837 258.444 307.14 258.99 306.44C259.586 305.676 260.186 304.917 260.799 304.168C261.264 303.599 261.716 303.022 262.159 302.436C262.68 301.748 263.219 301.079 263.769 300.416C264.342 299.725 264.895 299.022 265.445 298.314C265.632 298.075 265.818 297.837 266.005 297.598C266.075 297.508 266.075 297.508 266.147 297.417C266.511 296.954 266.882 296.498 267.254 296.042C267.719 295.473 268.171 294.896 268.614 294.31C269.13 293.629 269.665 292.968 270.211 292.311C270.631 291.804 271.035 291.287 271.432 290.762C271.95 290.076 272.487 289.409 273.036 288.748C273.608 288.058 274.161 287.354 274.712 286.647C274.898 286.408 275.085 286.169 275.272 285.931C275.342 285.841 275.342 285.841 275.414 285.749C275.777 285.286 276.148 284.83 276.521 284.374C276.986 283.806 277.438 283.229 277.881 282.643C278.401 281.955 278.941 281.286 279.491 280.623C280.063 279.932 280.617 279.229 281.167 278.521C281.826 277.676 282.492 276.839 283.17 276.01C283.516 275.585 283.854 275.155 284.187 274.719C284.63 274.137 285.089 273.569 285.551 273.002C286.112 272.314 286.66 271.616 287.206 270.917C287.802 270.153 288.402 269.394 289.015 268.644C289.48 268.075 289.932 267.498 290.375 266.912C290.895 266.225 291.435 265.556 291.985 264.892C292.558 264.202 293.111 263.498 293.661 262.791C293.848 262.552 294.034 262.313 294.221 262.075C294.268 262.015 294.315 261.955 294.363 261.893C294.727 261.431 295.098 260.974 295.47 260.519C295.935 259.95 296.387 259.373 296.83 258.787C297.346 258.106 297.881 257.444 298.427 256.788C298.847 256.281 299.251 255.764 299.648 255.238C300.166 254.553 300.703 253.886 301.252 253.225C301.824 252.535 302.377 251.831 302.928 251.124C303.114 250.885 303.301 250.646 303.487 250.407C303.534 250.348 303.58 250.289 303.628 250.228C304.064 249.673 304.509 249.126 304.958 248.581C305.306 248.155 305.632 247.72 305.947 247.269Z" fill="#AEF84F"></path>
</svg><style>@media (prefers-color-scheme: light) { :root { filter: none; } }
@media (prefers-color-scheme: dark) { :root { filter: none; } }
</style></svg>